<?xml version="1.0" encoding="utf-8"?>
<!-- Generator: Adobe Illustrator 17.0.0, SVG Export Plug-In . SVG Version: 6.00 Build 0)  -->
<!DOCTYPE svg PUBLIC "-//W3C//DTD SVG 1.1 Tiny//EN" "http://www.w3.org/Graphics/SVG/1.1/DTD/svg11-tiny.dtd">
<svg version="1.1" baseProfile="tiny" id="Logo" xmlns="http://www.w3.org/2000/svg" xmlns:xlink="http://www.w3.org/1999/xlink"
	 x="0px" y="0px" width="567.496px" height="648.451px" viewBox="0 0 567.496 648.451" xml:space="preserve">
<g id="A_-_Logo_2_">
	<path fill="#8DAFC8" d="M283.749,54.171l244.97,559.834l-358.29-108.614l-18.545-5.622l-7.689,17.787L97.002,626.735H33.206
		L283.749,54.171 M424.862,521.958l-18.925-43.223L303.642,245.11l-19.942-45.545l-19.859,45.582l-77.892,178.788l-9.737,22.351
		l23.323,7.098l180.186,54.837L424.862,521.958 M283.749,0L0,648.451h111.273l52.855-122.278l403.367,122.278L283.749,0L283.749,0z
		 M386.044,487.445l-180.186-54.837l77.892-178.788L386.044,487.445L386.044,487.445z"/>
</g>
</svg>
